<svg className="w-35 h-35" fill="white" xmlns="http://www.w3.org/2000/svg" height="35" viewBox="0 -960 960 960" width="35"><path d="M182.477-322.826v-182.478q0-20.391 14.327-34.435 14.326-14.043 34.717-14.043 20.392 0 34.435 14.043Q280-525.695 280-505.304v183.043q0 20.391-14.044 34.435-14.043 14.044-34.435 14.044-20.391 0-34.717-14.327-14.327-14.326-14.327-34.717Zm249.044.565v-183.043q0-20.391 14.044-34.435 14.044-14.043 34.435-14.043 20.391 0 34.435 14.043 14.044 14.044 14.044 34.435v183.043q0 20.391-14.044 34.435-14.044 14.044-34.435 14.044-20.391 0-34.435-14.044-14.044-14.044-14.044-34.435ZM113.782-105.304q-22.087 0-37.544-15.456-15.456-15.457-15.456-37.544 0-22.087 15.456-37.544 15.457-15.457 37.544-15.457h732.436q22.087 0 37.544 15.457 15.456 15.457 15.456 37.544 0 22.087-15.456 37.544-15.457 15.456-37.544 15.456H113.782ZM680-322.826v-182.478q0-20.391 14.326-34.435 14.326-14.043 34.718-14.043 20.391 0 34.435 14.043 14.044 14.044 14.044 34.435v183.043q0 20.391-14.044 34.435-14.044 14.044-34.435 14.044-20.392 0-34.718-14.327Q680-302.435 680-322.826Zm163.957-293.999H110.348q-20.653 0-35.11-14.457-14.456-14.456-14.456-35.109v-31.044q0-14.391 7.478-26.065 7.478-11.674 19.87-18.37l344.565-172q22.087-11.392 47.305-11.392t47.305 11.392L868.74-743.435q14.391 6.695 22.435 20.369 8.043 13.675 8.043 29.762v20.652q0 23.218-16.022 39.522-16.022 16.305-39.239 16.305Z"/></svg>