<svg xmlns="http://www.w3.org/2000/svg" height="20" viewBox="0 -960 960 960" width="20"><path d="M840-324v-240L512-400q-15.207 8-32.103 8Q463-392 448-400L112-568q-10-5-15-13.325t-5-18.5Q92-610 97-618.5t15-13.5l336-168q7.579-4 15.579-6T480-808q8.421 0 16.421 2T512-800l380 190q9 5 14.5 13t5.5 18.918V-324q0 15.3-10.289 25.65-10.29 10.35-25.5 10.35Q861-288 850.5-298.35 840-308.7 840-324ZM448-160l-192-96q-18-9-29-26.417-11-17.416-11-37.583v-115l232 116q15.207 8 32.103 8Q497-311 512-319l232-116v115q0 20.167-11 37.583Q722-265 704-256l-192 96q-7.579 4-15.579 6T480-152q-8.421 0-16.421-2T448-160Z"/></svg>