<svg className="w-35 h-35" fill="white" xmlns="http://www.w3.org/2000/svg" height="35" viewBox="0 -960 960 960" width="35"><path d="M60.782-671.521v-227.697h227.697v106.001H166.783v121.696H60.782Zm0 610.74V-288.48h106.001v121.696h121.696v106.001H60.782Zm610.739 0v-106.002h121.696v-121.696h106.001v227.697H671.521Zm121.696-610.74v-121.696H671.521v-106.001h227.697v227.697H793.217ZM700-260h60v60h-60v-60Zm0-120h60v60h-60v-60Zm-60 60h60v60h-60v-60Zm-60 60h60v60h-60v-60Zm-60-60h60v60h-60v-60Zm120-120h60v60h-60v-60Zm-60 60h60v60h-60v-60Zm-60-60h60v60h-60v-60Zm240-320v240H520v-240h240ZM440-440v240H200v-240h240Zm0-320v240H200v-240h240Zm-68.479 491.521v-103.042H268.479v103.042h103.042Zm0-320v-103.042H268.479v103.042h103.042Zm320 0v-103.042H588.479v103.042h103.042Z"/></svg>