<svg className="w-35 h-35" fill="white" xmlns="http://www.w3.org/2000/svg" height="35" viewBox="0 -960 960 960" width="35"><path d="M527.391-117.869 280.26-380.652q-6.695-6.696-9.978-15.326-3.283-8.631-3.283-18.326v-29.653q0-20.391 14.327-34.717 14.326-14.327 34.717-14.327h107.914q43.956 0 76.803-25.173 32.848-25.174 41.413-64.303H280q-22.087 0-37.544-15.457-15.457-15.457-15.457-37.544 0-22.087 15.457-37.544 15.457-15.457 37.544-15.457h253.565q-14.739-29.912-45.978-47.325-31.239-17.413-67.587-17.413H280q-22.087 0-37.544-15.457-15.457-15.456-15.457-37.544 0-22.087 15.457-37.544 15.457-15.456 37.544-15.456h400q22.087 0 37.544 15.456 15.457 15.457 15.457 37.544 0 22.088-15.457 37.544-15.457 15.457-37.544 15.457h-70.782q10.609 11.913 21.044 29.652 10.434 17.739 15.869 35.086H680q22.087 0 37.544 15.457 15.457 15.457 15.457 37.544 0 22.087-15.457 37.544-15.457 15.457-37.544 15.457h-29.13q-9.696 82.739-70.565 137.412-60.87 54.674-144.478 56.935h-15.999L605.74-191.391q24.217 25.782 10.043 58.196-14.174 32.413-49.218 32.413-11.391 0-21.435-4.413-10.043-4.413-17.739-12.674Z"/></svg>