<svg xmlns="http://www.w3.org/2000/svg" height="20" viewBox="0 -960 960 960" width="20"><path d="m260-280-25.692 70.154q-.863 1.846-3.019 3.077-2.157 1.231-4.727 1.231h-2.203q-3.898 0-5.821-2-1.923-2-1.923-6V-280h-24q-23.354 0-39.984-16.631Q136-313.261 136-336.615v-334.77q0-23.354 16.631-39.984Q169.261-728 192.615-728h574.77q23.354 0 39.984 16.631Q824-694.739 824-671.385v334.956q0 22.513-16.481 39.025-16.48 16.513-40.134 17.513h-24v67.353q0 2.456-2.082 4.728-2.081 2.272-5.109 2.272h-3.102q-2.66 0-4.876-1.636t-3.293-3.441L700.769-280H260Zm-67.385-32h574.77q10.769 0 17.692-6.923T792-336.615v-334.77q0-10.769-6.923-17.692T767.385-696h-574.77q-10.769 0-17.692 6.923T168-671.385v334.77q0 10.769 6.923 17.692T192.615-312ZM480-504Z"/></svg>